<?xml version="1.0"?>
<!DOCTYPE svg PUBLIC "-//W3C//DTD SVG 1.1//EN" "http://www.w3.org/Graphics/SVG/1.1/DTD/svg11.dtd">
<svg xmlns="http://www.w3.org/2000/svg" xmlns:xl="http://www.w3.org/1999/xlink" version="1.1" viewBox="0 0 1050 1300" width="1050pt" height="1300pt"><metadata xmlns:dc="http://purl.org/dc/elements/1.1/"><dc:date>2013-04-25 20:43Z</dc:date><!-- Produced by OmniGraffle Professional 5.4.1 --></metadata><defs></defs><g stroke="none" stroke-opacity="1" stroke-dasharray="none" fill="none" fill-opacity="1"><title>unitsq.core</title><g><title>gear</title><path d="M 524.03107 987.5 C 420.50018 987.5 336.53107 903.50037 336.53107 800 C 336.53107 696.4691 420.50018 612.5 524.03107 612.5 C 627.56195 612.5 711.53107 696.4691 711.53107 800 C 711.53107 903.50037 627.56195 987.5 524.03107 987.5 M 1025 861.53107 L 1025 736.53107 L 875.59357 674.28093 C 871.43745 662.56218 867.062 651.2497 861.6871 640.0936 L 921.96884 489.9376 L 833.59375 401.5625 L 684.78146 462.8437 C 673.4375 457.40585 661.8122 452.78053 649.8436 448.4375 L 586.53107 300 L 461.53107 300 L 399.75014 447.93777 C 387.31232 452.34375 375.3437 456.96907 363.46855 462.59384 L 214.93759 402.96822 L 126.5625 491.3433 L 187.12463 638.562 C 181.25 650.59357 176.46828 662.96844 171.96884 675.65613 L 25 738.46893 L 25 863.46893 L 172.0623 924.75014 C 176.62468 937.4378 181.49986 949.8432 187.3745 961.87477 L 127.87476 1110.0624 L 216.24985 1198.4375 L 363.87482 1137.656 C 375.68703 1143.2503 387.81204 1147.8432 400.24986 1152.0622 L 463.46893 1300 L 588.49945 1300 L 650.34332 1151.31264 C 662.21848 1146.9372 673.93723 1142.28134 685.15625 1136.9064 L 835.0624 1196.96884 L 923.4375 1108.59375 L 861.93695 959.4372 C 867.12494 948.18764 871.43745 936.90567 875.59357 925.24986 Z" fill="black"/></g></g></svg>
